# xmcd
#
# Track frame offsets:
#	150
#	21522
#	37105
#	51850
#	66712
#	82147
#	97997
#	112365
#	127517
#	142272
#	153207
#	163507
#	177335
#	189790
#	207497
#	217517
#
# Disc length: 3040
#
# Revision: 5
# Processed by: cddbd v1.5.1PL0 Copyright (c) Steve Scherf et al.
# Submitted via: CDex 1.51
# Normalized: r3:TDELIM( - ),TSWAP
#
DISCID=e70bde10
DTITLE=Various Artist - The Greatest Ragtime Of The Century
DYEAR=1987
DGENRE=Blues
TTITLE0=Jelly Roll Morton - Shreveport Stomp
TTITLE1=Jelly Roll Morton - Sweet Man
TTITLE2=Jelly Roll Morton - Tom Cat Blues
TTITLE3=Thomas "Fats" Waller - A New Kind of Man with a New Kind of Love for Me
TTITLE4=Thomas "Fats" Waller - Nobody but My Baby
TTITLE5=Thomas "Fats" Waller - Got to Cool My Doggies Now
TTITLE6=Scott Joplin - Maple Leaf Rag
TTITLE7=Scott Joplin - Weeping Willow Rag
TTITLE8=Scott Joplin - Something Doing
TTITLE9=James P. Johnson - Steeplechase Rag
TTITLE10=James P. Johnson - Twilight Rag
TTITLE11=Eubie Blake - Charleston Rag
TTITLE12=Eubie Blake - It's Right Here for You
TTITLE13=Eubie Blake - Fare Thee Honey Blues
TTITLE14=Jimmy Blythe - Mr. Freddie Blues
TTITLE15=Jimmy Blythe and Charles Clark - Regal sStomp
EXTD=YEAR: 1987
EXTT0=
EXTT1=
EXTT2=
EXTT3=
EXTT4=
EXTT5=
EXTT6=
EXTT7=
EXTT8=
EXTT9=
EXTT10=
EXTT11=
EXTT12=
EXTT13=
EXTT14=
EXTT15=
PLAYORDER=
